<?xml version="1.0" encoding="UTF-8" standalone="no"?>
<svg width="800" height="400" viewBox="0 0 800 400" xmlns="http://www.w3.org/2000/svg">
  <defs>
    <style>
      .title { font-family: 'Montserrat', 'Arial', sans-serif; font-size: 56px; letter-spacing: 6px; fill: #ffffff; }
      .subtitle { font-family: 'Montserrat', 'Arial', sans-serif; font-size: 22px; letter-spacing: 2px; fill: #ffffff; }
    </style>
  </defs>

  <!-- Icon -->
  <g transform="translate(400,140)">
    <g fill="#ffffff">
      <path d="M-40 -60 h80 a10 10 0 0 1 0 20 h-80 a10 10 0 0 1 0 -20z"/>
      <path d="M-55 -25 h110 a10 10 0 0 1 0 20 h-110 a10 10 0 0 1 0 -20z"/>
      <path d="M-40 10 h80 a10 10 0 0 1 0 20 h-80 a10 10 0 0 1 0 -20z"/>
      <path d="M-25 45 h50 a10 10 0 0 1 0 20 h-50 a10 10 0 0 1 0 -20z"/>
      <!-- Drop -->
      <path d="M0 -45 C-8 -30 -6 -15 0 -15 C6 -15 8 -30 0 -45z"/>
    </g>
  </g>

  <!-- Text -->
  <text x="400" y="270" text-anchor="middle" class="title">BEE FACTORY</text>
  <text x="400" y="315" text-anchor="middle" class="subtitle">beekeeping equipment</text>
</svg>
