<svg xmlns="http://www.w3.org/2000/svg" viewBox="0 0 435 447" width="435" height="447">
  <path d="M 66 374 L 66 381 L 95 428 L 106 440 L 113 444 L 121 446 L 317 445 L 326 441 L 340 426 L 359 397 L 368 380 L 367 372 L 361 368 L 72 368 Z M 1 246 L 1 254 L 3 261 L 19 295 L 33 313 L 47 319 L 386 319 L 402 312 L 410 302 L 425 275 L 433 253 L 433 247 L 431 243 L 427 240 L 7 240 Z M 183 189 L 421 190 L 426 187 L 428 181 L 425 171 L 405 134 L 394 122 L 385 117 L 198 116 L 203 126 L 205 136 L 204 157 L 196 175 Z M 6 177 L 6 183 L 8 187 L 13 190 L 123 189 L 113 180 L 108 173 L 101 155 L 101 135 L 103 126 L 108 116 L 51 116 L 42 120 L 32 129 Z M 75 54 L 76 62 L 81 66 L 123 67 L 135 73 L 142 81 L 145 88 L 145 102 L 139 116 L 129 130 L 127 136 L 128 150 L 133 159 L 138 164 L 146 168 L 157 168 L 167 164 L 174 157 L 178 149 L 179 140 L 177 131 L 165 114 L 160 101 L 160 91 L 162 83 L 171 72 L 179 68 L 190 66 L 352 66 L 356 64 L 358 61 L 358 54 L 333 14 L 324 5 L 313 0 L 122 0 L 111 4 L 102 12 Z" fill="#ffffff" fill-rule="evenodd"/>
</svg>
